<svg width="33" height="35" viewBox="0 0 33 35" fill="none" xmlns="http://www.w3.org/2000/svg">
<rect x="0.806396" width="31.6129" height="35" rx="7" fill="#0051FF"/>
<g clip-path="url(#clip0_47_130)">
<rect x="4.41919" y="4" width="24.3871" height="27" rx="12.1935" fill="#0051FF" fill-opacity="0.83"/>
<path d="M26.774 17.5C26.774 11.29 22.2217 6.25 16.6127 6.25C11.0037 6.25 6.45142 11.29 6.45142 17.5C6.45142 22.945 9.9469 27.4787 14.5804 28.525V20.875H12.5482V17.5H14.5804V14.6875C14.5804 12.5163 16.1758 10.75 18.1369 10.75H20.6772V14.125H18.645C18.0861 14.125 17.6288 14.6312 17.6288 15.25V17.5H20.6772V20.875H17.6288V28.6938C22.7603 28.1313 26.774 23.3388 26.774 17.5Z" fill="white"/>
</g>
<defs>
<clipPath id="clip0_47_130">
<rect x="4.41919" y="4" width="24.3871" height="27" rx="12.1935" fill="white"/>
</clipPath>
</defs>
</svg>
