<svg width="165" height="46" viewBox="0 0 165 46" fill="none" xmlns="http://www.w3.org/2000/svg">
<path fill-rule="evenodd" clip-rule="evenodd" d="M16.4194 0.140409C16.4194 0.268484 16.3892 0.284384 16.0735 0.321503C15.7578 0.358622 15.7275 0.374522 15.7275 0.502597C15.7275 0.631841 15.7049 0.643006 15.443 0.643006C15.1756 0.643006 15.1575 0.652593 15.1403 0.803758C15.126 0.930021 15.0881 0.968484 14.9635 0.982981C14.839 0.997537 14.805 1.03203 14.805 1.14373C14.805 1.26286 14.7768 1.28601 14.632 1.28601C14.4782 1.28601 14.459 1.30548 14.459 1.46138C14.459 1.60816 14.4362 1.63674 14.3187 1.63674C14.2085 1.63674 14.1745 1.67123 14.1601 1.79749C14.1458 1.92376 14.1079 1.96222 13.9833 1.97672C13.8342 1.99414 13.8247 2.01249 13.8247 2.28361C13.8247 2.54911 13.8137 2.57203 13.6862 2.57203C13.5599 2.57203 13.5442 2.60271 13.5076 2.92276C13.471 3.2428 13.4553 3.27349 13.329 3.27349H13.1905V4.73486V6.19624H13.3346C13.4657 6.19624 13.4788 6.21881 13.4794 6.44468C13.4798 6.58134 13.4961 6.79178 13.5158 6.91232C13.5454 7.09376 13.5751 7.13152 13.6882 7.13152C13.8151 7.13152 13.8247 7.15397 13.8247 7.44917C13.8247 7.7522 13.832 7.76763 13.9833 7.78529C14.1079 7.79978 14.1458 7.83825 14.1601 7.96451C14.1745 8.09077 14.2085 8.12526 14.3187 8.12526C14.4362 8.12526 14.459 8.15385 14.459 8.30063C14.459 8.45653 14.4782 8.47599 14.632 8.47599C14.7768 8.47599 14.805 8.49914 14.805 8.61827C14.805 8.72998 14.839 8.76447 14.9635 8.77902C15.0881 8.79352 15.126 8.83198 15.1403 8.95825C15.1575 9.10941 15.1756 9.119 15.443 9.119C15.7049 9.119 15.7275 9.13016 15.7275 9.25941C15.7275 9.38748 15.7578 9.40338 16.0735 9.4405C16.3892 9.47762 16.4194 9.49352 16.4194 9.6216V9.762H18.0339H19.6484V9.61587C19.6484 9.48896 19.6739 9.46973 19.8421 9.46973C19.9487 9.46973 20.1563 9.45301 20.3034 9.43255C20.5359 9.40022 20.5709 9.37725 20.5709 9.25719C20.5709 9.14261 20.6005 9.119 20.7439 9.119C20.8887 9.119 20.9169 9.09585 20.9169 8.97672C20.9169 8.86501 20.9509 8.83052 21.0755 8.81597C21.2 8.80147 21.2379 8.76301 21.2522 8.63674C21.2666 8.51048 21.3006 8.47599 21.4108 8.47599C21.5211 8.47599 21.5512 8.44548 21.5512 8.33371C21.5512 8.222 21.5852 8.18751 21.7097 8.17296C21.8343 8.15846 21.8722 8.12 21.8865 7.99374C21.9009 7.86747 21.9349 7.83299 22.0451 7.83299C22.1626 7.83299 22.1854 7.8044 22.1854 7.65762C22.1854 7.51177 22.2086 7.48225 22.3229 7.48225C22.4463 7.48225 22.4645 7.44934 22.5001 7.16075C22.5358 6.87035 22.5532 6.83925 22.6797 6.83925C22.8194 6.83925 22.8197 6.83808 22.8197 6.19624V5.55324H22.9638H23.108V4.881V4.20877H22.9638H22.8197V3.56576C22.8197 2.92392 22.8194 2.92276 22.6797 2.92276C22.5532 2.92276 22.5358 2.89166 22.5001 2.60125C22.4645 2.31266 22.4463 2.27975 22.3229 2.27975C22.2086 2.27975 22.1854 2.25023 22.1854 2.10438C22.1854 1.95813 22.1624 1.92902 22.0467 1.92902C21.9242 1.92902 21.9033 1.89529 21.8687 1.64013C21.8338 1.3827 21.8128 1.34932 21.6759 1.33324C21.5581 1.31945 21.5182 1.279 21.5046 1.15952C21.4887 1.02074 21.4558 0.999466 21.2019 0.964042C20.9502 0.928969 20.9169 0.907866 20.9169 0.783649C20.9169 0.66633 20.8882 0.643006 20.7439 0.643006C20.5997 0.643006 20.5709 0.619624 20.5709 0.502597C20.5709 0.374522 20.5407 0.358622 20.225 0.321503C19.9093 0.284384 19.879 0.268484 19.879 0.140409V0H18.1492H16.4194V0.140409ZM18.6682 2.42589C18.6682 2.55279 18.6937 2.57203 18.8619 2.57203C18.9685 2.57203 19.1761 2.58874 19.3232 2.6092C19.5557 2.64153 19.5907 2.6645 19.5907 2.78457C19.5907 2.89914 19.6203 2.92276 19.7637 2.92276C19.9175 2.92276 19.9367 2.94222 19.9367 3.09812C19.9367 3.24484 19.9596 3.27349 20.0767 3.27349C20.2031 3.27349 20.2205 3.30458 20.2563 3.59499C20.2919 3.88358 20.31 3.91649 20.4334 3.91649H20.5709V4.881V5.84551H20.4334C20.31 5.84551 20.2919 5.87842 20.2563 6.16701C20.2205 6.45742 20.2031 6.48852 20.0767 6.48852C19.9596 6.48852 19.9367 6.51716 19.9367 6.66388C19.9367 6.81978 19.9175 6.83925 19.7637 6.83925C19.6203 6.83925 19.5907 6.86286 19.5907 6.97744C19.5907 7.0975 19.5557 7.12048 19.3232 7.1528C19.1761 7.17326 18.9685 7.18998 18.8619 7.18998C18.6937 7.18998 18.6682 7.20921 18.6682 7.33612V7.48225H18.0339C17.4027 7.48225 17.3997 7.48155 17.3997 7.34185C17.3997 7.21377 17.3694 7.19787 17.0537 7.16075C16.738 7.12363 16.7077 7.10773 16.7077 6.97966C16.7077 6.86263 16.679 6.83925 16.5348 6.83925C16.3887 6.83925 16.3618 6.81651 16.3618 6.69311C16.3618 6.5762 16.3329 6.54697 16.2176 6.54697C16.0959 6.54697 16.0735 6.51967 16.0735 6.37161C16.0735 6.22623 16.0502 6.19624 15.9372 6.19624C15.8187 6.19624 15.7961 6.1607 15.7642 5.92501C15.744 5.77589 15.7275 5.5523 15.7275 5.42814C15.7275 5.22641 15.7122 5.20251 15.5834 5.20251C15.4471 5.20251 15.4392 5.18497 15.4392 4.881C15.4392 4.57704 15.4471 4.5595 15.5834 4.5595C15.7122 4.5595 15.7275 4.53559 15.7275 4.33386C15.7275 4.2097 15.744 3.98611 15.7642 3.83699C15.7961 3.6013 15.8187 3.56576 15.9372 3.56576C16.0441 3.56576 16.0735 3.53431 16.0735 3.41962C16.0735 3.30271 16.1023 3.27349 16.2176 3.27349C16.3393 3.27349 16.3618 3.24619 16.3618 3.09812C16.3618 2.94222 16.381 2.92276 16.5348 2.92276C16.6786 2.92276 16.7077 2.89926 16.7077 2.78334C16.7077 2.65825 16.7402 2.63983 17.0249 2.60377C17.3113 2.56752 17.342 2.54987 17.342 2.42168V2.27975H18.0051H18.6682V2.42589ZM12.2103 3.06468C12.2103 3.19288 12.1796 3.21053 11.8931 3.24677C11.5912 3.28506 11.576 3.295 11.576 3.45557C11.576 3.59476 11.5517 3.62422 11.4373 3.62422C11.3145 3.62422 11.2939 3.65789 11.2589 3.91649C11.2238 4.1751 11.2032 4.20877 11.0805 4.20877C10.9648 4.20877 10.9418 4.23788 10.9418 4.38413C10.9418 4.55775 10.9385 4.5595 10.6246 4.5595C10.3271 4.5595 10.3075 4.56827 10.3075 4.70178C10.3075 4.81349 10.2735 4.84797 10.1489 4.86253C10.0244 4.87703 9.98646 4.91549 9.97216 5.04175C9.95474 5.19514 9.93952 5.20251 9.64061 5.20251C9.3473 5.20251 9.32729 5.21157 9.32729 5.34443C9.32729 5.47263 9.29661 5.49028 9.01016 5.52652C8.72549 5.56259 8.69303 5.581 8.69303 5.7061C8.69303 5.82201 8.66391 5.84551 8.52005 5.84551C8.36627 5.84551 8.34707 5.86498 8.34707 6.02088C8.34707 6.19449 8.34384 6.19624 8.02995 6.19624C7.73011 6.19624 7.71282 6.20419 7.71282 6.34238C7.71282 6.45929 7.68399 6.48852 7.56867 6.48852C7.44695 6.48852 7.42452 6.51582 7.42452 6.66388C7.42452 6.81978 7.40532 6.83925 7.25154 6.83925C7.10675 6.83925 7.07856 6.8624 7.07856 6.98153C7.07856 7.09324 7.04454 7.12772 6.91999 7.14228C6.79689 7.1566 6.75745 7.19559 6.74367 7.31648C6.72787 7.45496 6.69472 7.47658 6.4443 7.51148C6.2143 7.54357 6.15946 7.57391 6.14493 7.67726C6.13259 7.76529 6.08007 7.80925 5.97213 7.82194C5.85225 7.83597 5.81299 7.87577 5.79915 7.9973C5.78658 8.10732 5.74333 8.15993 5.655 8.17267C5.57641 8.18407 5.52209 8.23913 5.51085 8.31881C5.49839 8.40772 5.44638 8.4522 5.34058 8.46465C5.20248 8.48084 5.18461 8.51223 5.14903 8.80077C5.11369 9.08778 5.0961 9.119 4.96983 9.119C4.85993 9.119 4.82983 9.14963 4.82983 9.26128C4.82983 9.37299 4.79581 9.40747 4.67126 9.42203C4.54672 9.43653 4.50878 9.47499 4.49448 9.60125C4.48012 9.72752 4.4461 9.762 4.33592 9.762C4.2184 9.762 4.19557 9.79059 4.19557 9.93737C4.19557 10.0836 4.17257 10.1127 4.05684 10.1127C3.93408 10.1127 3.9135 10.1464 3.87844 10.405C3.84339 10.6636 3.8228 10.6973 3.70004 10.6973C3.58501 10.6973 3.56131 10.7266 3.56131 10.8688C3.56131 11.0124 3.53554 11.0433 3.40275 11.0588C3.27821 11.0733 3.24026 11.1117 3.22597 11.238C3.21161 11.3643 3.17759 11.3987 3.0674 11.3987C2.93571 11.3987 2.92706 11.4186 2.92706 11.7203C2.92706 12.0385 2.92533 12.0418 2.75408 12.0418C2.58312 12.0418 2.5811 12.0454 2.5811 12.3594C2.5811 12.6624 2.57383 12.6779 2.42253 12.6955C2.29799 12.71 2.26005 12.7485 2.24575 12.8747C2.23139 13.001 2.19737 13.0355 2.08719 13.0355C1.95549 13.0355 1.94684 13.0554 1.94684 13.357C1.94684 13.6584 1.93808 13.6785 1.80684 13.6785C1.6804 13.6785 1.66298 13.7096 1.62723 14C1.59166 14.2886 1.57349 14.3215 1.4501 14.3215C1.32204 14.3215 1.31258 14.3434 1.31258 14.6391C1.31258 14.9422 1.30532 14.9576 1.15402 14.9753C1.00393 14.9927 0.994534 15.0117 0.978158 15.3299C0.962071 15.6428 0.951116 15.666 0.819594 15.666C0.691935 15.666 0.67827 15.6899 0.677693 15.9144C0.677347 16.051 0.660972 16.2615 0.64131 16.382C0.611731 16.5635 0.582036 16.6013 0.468965 16.6013C0.341826 16.6013 0.332369 16.6235 0.332369 16.9228C0.332369 17.2232 0.323317 17.2443 0.193871 17.2443C0.0678268 17.2443 0.0518547 17.2751 0.0159903 17.5886C-0.00568976 17.778 -0.00528625 18.0805 0.0169704 18.2609C0.0532961 18.5559 0.0711133 18.5887 0.194851 18.5887C0.321184 18.5887 0.332369 18.6122 0.332369 18.8771C0.332369 19.1483 0.341825 19.1666 0.490934 19.184C0.615479 19.1985 0.653418 19.237 0.667718 19.3633C0.681902 19.4881 0.716441 19.524 0.822477 19.524C0.928513 19.524 0.963052 19.5599 0.977236 19.6848C0.991536 19.811 1.02948 19.8495 1.15402 19.864C1.27614 19.8782 1.31258 19.9136 1.31258 20.018C1.31258 20.1384 1.34793 20.158 1.62971 20.1937C1.91617 20.23 1.94684 20.2476 1.94684 20.3758C1.94684 20.5089 1.96662 20.5177 2.26397 20.5177C2.55971 20.5177 2.5811 20.5272 2.5811 20.6572C2.5811 20.7823 2.61356 20.8007 2.89823 20.8367C3.18468 20.873 3.21536 20.8906 3.21536 21.0188C3.21536 21.1579 3.22499 21.1608 3.70546 21.1608H4.19557V21.3361C4.19557 21.5097 4.1988 21.5115 4.5127 21.5115C4.81253 21.5115 4.82983 21.5194 4.82983 21.6576C4.82983 21.7958 4.84713 21.8038 5.14696 21.8038C5.46086 21.8038 5.46409 21.8055 5.46409 21.9791C5.46409 22.1527 5.46732 22.1545 5.78121 22.1545C6.07759 22.1545 6.09834 22.1637 6.09834 22.2949C6.09834 22.423 6.12861 22.4389 6.4443 22.476C6.75999 22.5131 6.79026 22.529 6.79026 22.6571C6.79026 22.7883 6.81102 22.7975 7.10739 22.7975C7.40474 22.7975 7.42452 22.8064 7.42452 22.9394C7.42452 23.0676 7.45519 23.0853 7.74165 23.1215C8.02631 23.1576 8.05877 23.176 8.05877 23.3011C8.05877 23.4371 8.07088 23.4405 8.54888 23.4405C9.02573 23.4405 9.03899 23.4442 9.03899 23.5787C9.03899 23.6988 9.07405 23.7217 9.30653 23.7541C9.45362 23.7745 9.80391 23.7912 10.0849 23.7912C10.5914 23.7912 10.5958 23.7925 10.5958 23.9374V24.0835H12.8734H15.1509V23.9374C15.1509 23.7968 15.1649 23.7912 15.5176 23.7912C15.7194 23.7912 16.0048 23.7745 16.1519 23.7541C16.3844 23.7217 16.4194 23.6988 16.4194 23.5787C16.4194 23.4442 16.4327 23.4405 16.9095 23.4405C17.3939 23.4405 17.3997 23.4388 17.3997 23.2944C17.3997 23.1675 17.4252 23.1482 17.5934 23.1482C17.7 23.1482 17.9076 23.1315 18.0547 23.111C18.2872 23.0787 18.3222 23.0557 18.3222 22.9357C18.3222 22.7988 18.3281 22.7975 18.9565 22.7975H19.5907V22.9729C19.5907 23.1288 19.6099 23.1482 19.7637 23.1482H19.9367V23.6159C19.9367 24.0757 19.9391 24.0835 20.0808 24.0835C20.2097 24.0835 20.225 24.1074 20.225 24.3091C20.225 24.4333 20.2415 24.6569 20.2617 24.806C20.2935 25.0417 20.3162 25.0772 20.4346 25.0772C20.5672 25.0772 20.5709 25.0907 20.5709 25.5741C20.5709 26.06 20.574 26.071 20.7097 26.071C20.8324 26.071 20.853 26.1047 20.8881 26.3633C20.9231 26.6219 20.9437 26.6555 21.0665 26.6555C21.1822 26.6555 21.2052 26.6846 21.2052 26.8309C21.2052 26.9868 21.2244 27.0063 21.3782 27.0063C21.532 27.0063 21.5512 27.0257 21.5512 27.1816C21.5512 27.3297 21.5736 27.357 21.6953 27.357C21.8106 27.357 21.8395 27.3862 21.8395 27.5031C21.8395 27.6265 21.8664 27.6493 22.0124 27.6493C22.1662 27.6493 22.1854 27.6687 22.1854 27.8246V28H22.8197C23.4496 28 23.4539 27.9991 23.4539 27.8606C23.4539 27.7355 23.4864 27.7171 23.7711 27.681C24.0575 27.6448 24.0882 27.6271 24.0882 27.4989C24.0882 27.3661 24.1082 27.357 24.4015 27.357C24.7004 27.357 24.7156 27.3496 24.733 27.1962C24.7501 27.0463 24.7716 27.0343 25.054 27.0178C25.3271 27.0019 25.3567 26.9869 25.3567 26.8646C25.3567 26.7423 25.3905 26.7252 25.7027 26.6894C26.0207 26.6529 26.0486 26.6382 26.0486 26.5065C26.0486 26.3718 26.0676 26.3633 26.3657 26.3633C26.6633 26.3633 26.6829 26.3545 26.6829 26.221C26.6829 26.1093 26.7169 26.0748 26.8414 26.0602H27.211L27.2726 25.7861C27.7741 25.7266 27.2797 24.2749 27.2726 23.2944L27.5 21.5V18L27.222 14.3215H26.5425C26.4323 14.3215 26.3983 14.287 26.384 14.1608C26.3697 14.0345 26.3317 13.996 26.2072 13.9815C26.0826 13.967 26.0486 13.9325 26.0486 13.8208C26.0486 13.6875 26.0288 13.6785 25.7353 13.6785C25.4364 13.6785 25.4212 13.6711 25.4037 13.5177C25.3865 13.3656 25.3678 13.3561 25.054 13.3395C24.7453 13.3231 24.7224 13.312 24.7224 13.1787C24.7224 13.0493 24.6989 13.0354 24.4774 13.0348C24.0417 13.0337 23.7999 12.9715 23.7999 12.8604C23.7999 12.7149 23.4876 12.6846 21.9899 12.6854C20.4855 12.6862 20.2958 12.7079 20.2713 12.8819C20.2553 12.9956 20.2132 13.0077 19.7781 13.0232C19.3223 13.0395 19.3024 13.046 19.3024 13.1772C19.3024 13.2995 19.2682 13.3186 18.9853 13.3545C18.6988 13.3907 18.6682 13.4084 18.6682 13.5366C18.6682 13.6763 18.6602 13.6785 18.1492 13.6785C17.6342 13.6785 17.6303 13.6796 17.6303 13.8246C17.6303 13.9318 17.5996 13.9708 17.515 13.9708C17.4304 13.9708 17.3997 13.9318 17.3997 13.8246V13.6785H16.5924H15.7852V13.5403C15.7852 13.4202 15.7501 13.3973 15.5176 13.3649C15.1707 13.3167 13.1707 13.3167 12.8238 13.3649C12.5913 13.3973 12.5562 13.4202 12.5562 13.5403C12.5562 13.6748 12.543 13.6785 12.0661 13.6785C11.5856 13.6785 11.576 13.6813 11.576 13.8204C11.576 13.9486 11.5453 13.9663 11.2589 14.0025C10.9742 14.0386 10.9418 14.057 10.9418 14.1821C10.9418 14.298 10.9126 14.3215 10.7688 14.3215C10.624 14.3215 10.5958 14.3447 10.5958 14.4638C10.5958 14.5755 10.5618 14.61 10.4372 14.6245C10.3141 14.6389 10.2747 14.6778 10.2609 14.7987C10.2451 14.9371 10.2119 14.9588 9.96293 14.9936L9.68276 15.0326L9.64378 15.32C9.60936 15.5738 9.58849 15.6075 9.46602 15.6075C9.3503 15.6075 9.32729 15.6366 9.32729 15.7829C9.32729 15.9388 9.30809 15.9582 9.15431 15.9582C9.00826 15.9582 8.98133 15.981 8.98133 16.1044C8.98133 16.2213 8.9525 16.2505 8.83718 16.2505C8.71546 16.2505 8.69303 16.2778 8.69303 16.4259C8.69303 16.5726 8.67014 16.6013 8.55303 16.6013C8.42659 16.6013 8.40917 16.6324 8.37342 16.9228C8.33785 17.2113 8.31969 17.2443 8.19629 17.2443C8.08905 17.2443 8.05877 17.2129 8.05877 17.102C8.05877 16.9903 8.02476 16.9558 7.90021 16.9412C7.77567 16.9267 7.73773 16.8883 7.72343 16.762C7.70699 16.6176 7.72308 16.6013 7.88199 16.6013C8.03998 16.6013 8.05877 16.5826 8.05877 16.4259C8.05877 16.2796 8.08178 16.2505 8.1975 16.2505C8.32026 16.2505 8.34085 16.2169 8.3759 15.9582C8.41096 15.6996 8.43154 15.666 8.5543 15.666C8.67003 15.666 8.69303 15.6369 8.69303 15.4906C8.69303 15.3438 8.71586 15.3152 8.83337 15.3152C8.94356 15.3152 8.97758 15.2808 8.99194 15.1545C9.00624 15.0282 9.04418 14.9898 9.16873 14.9753C9.32683 14.9568 9.32729 14.9554 9.32729 14.493C9.32729 14.0444 9.33173 14.0292 9.4636 14.0292C9.58203 14.0292 9.60469 13.9937 9.63658 13.758C9.65676 13.6089 9.67325 13.2275 9.67325 12.9104C9.67325 12.3361 9.67377 12.334 9.81596 12.334H9.95866L9.97452 11.3841C9.98986 10.4656 9.99441 10.4337 10.1131 10.4165C10.259 10.3954 10.3059 10.1836 10.3069 9.5428C10.3075 9.13221 10.3119 9.119 10.4488 9.119C10.5803 9.119 10.5912 9.09585 10.6073 8.78288C10.6237 8.46471 10.6331 8.44577 10.7832 8.42829C10.9345 8.41064 10.9418 8.39521 10.9418 8.09218C10.9418 7.79563 10.951 7.77453 11.0805 7.77453C11.2032 7.77453 11.2238 7.74086 11.2589 7.48225C11.2939 7.22365 11.3145 7.18998 11.4373 7.18998C11.553 7.18998 11.576 7.16087 11.576 7.01461V6.83925H11.922C12.249 6.83925 12.2679 6.83153 12.2679 6.69861C12.2679 6.57415 12.3011 6.55329 12.5562 6.51775C12.8113 6.4822 12.8445 6.46134 12.8445 6.33689C12.8445 6.22582 12.8142 6.19624 12.7004 6.19624H12.5562V4.881V3.56576H12.7004C12.8367 3.56576 12.8445 3.54823 12.8445 3.24426V2.92276H12.5274C12.2301 2.92276 12.2103 2.93164 12.2103 3.06468ZM3.84961 15.3152C3.84961 15.6504 3.84321 15.666 3.70546 15.666H3.56131V16.7766V17.8873H3.70546C3.82718 17.8873 3.84961 17.9146 3.84961 18.0626C3.84961 18.2185 3.86881 18.238 4.02259 18.238C4.17637 18.238 4.19557 18.2575 4.19557 18.4134C4.19557 18.5614 4.218 18.5887 4.33972 18.5887C4.45504 18.5887 4.48387 18.618 4.48387 18.7349C4.48387 18.8629 4.50884 18.881 4.68568 18.881C4.86039 18.881 4.88749 18.8999 4.88749 19.0216C4.88749 19.1461 4.9207 19.167 5.17579 19.2025L5.46409 19.2427V19.5587C5.46409 19.9064 5.46299 19.9071 5.04605 19.8372C4.86708 19.8072 4.82983 19.7771 4.82983 19.6625C4.82983 19.5476 4.80036 19.524 4.65685 19.524C4.51259 19.524 4.48387 19.5007 4.48387 19.3834C4.48387 19.2589 4.45066 19.238 4.19557 19.2025C3.94049 19.167 3.90727 19.1461 3.90727 19.0216C3.90727 18.9043 3.87856 18.881 3.73429 18.881C3.58052 18.881 3.56131 18.8615 3.56131 18.7056C3.56131 18.5589 3.53842 18.5303 3.42132 18.5303C3.29487 18.5303 3.27746 18.4992 3.24171 18.2088C3.20613 17.9202 3.18797 17.8873 3.06458 17.8873H2.92706V16.7766V15.666H3.06757C3.18393 15.666 3.21115 15.6334 3.22614 15.476C3.23998 15.3304 3.27446 15.2816 3.37392 15.2673C3.45245 15.256 3.50365 15.208 3.50365 15.1455C3.50365 15.0077 3.55405 14.9645 3.71509 14.9645C3.84108 14.9645 3.84961 14.9868 3.84961 15.3152Z" fill="#A69A60"/>
<path fill-rule="evenodd" clip-rule="evenodd" d="M148.081 0.140409C148.081 0.268484 148.111 0.284384 148.427 0.321503C148.742 0.358622 148.772 0.374522 148.772 0.502597C148.772 0.631841 148.795 0.643006 149.057 0.643006C149.324 0.643006 149.343 0.652593 149.36 0.803758C149.374 0.930021 149.412 0.968484 149.536 0.982981C149.661 0.997537 149.695 1.03203 149.695 1.14373C149.695 1.26286 149.723 1.28601 149.868 1.28601C150.022 1.28601 150.041 1.30548 150.041 1.46138C150.041 1.60816 150.064 1.63674 150.181 1.63674C150.292 1.63674 150.326 1.67123 150.34 1.79749C150.354 1.92376 150.392 1.96222 150.517 1.97672C150.666 1.99414 150.675 2.01249 150.675 2.28361C150.675 2.54911 150.686 2.57203 150.814 2.57203C150.94 2.57203 150.956 2.60271 150.992 2.92276C151.029 3.2428 151.045 3.27349 151.171 3.27349H151.31V4.73486V6.19624H151.165C151.034 6.19624 151.021 6.21881 151.021 6.44468C151.02 6.58134 151.004 6.79178 150.984 6.91232C150.955 7.09376 150.925 7.13152 150.812 7.13152C150.685 7.13152 150.675 7.15397 150.675 7.44917C150.675 7.7522 150.668 7.76763 150.517 7.78529C150.392 7.79978 150.354 7.83825 150.34 7.96451C150.326 8.09077 150.292 8.12526 150.181 8.12526C150.064 8.12526 150.041 8.15385 150.041 8.30063C150.041 8.45653 150.022 8.47599 149.868 8.47599C149.723 8.47599 149.695 8.49914 149.695 8.61827C149.695 8.72998 149.661 8.76447 149.536 8.77902C149.412 8.79352 149.374 8.83198 149.36 8.95825C149.343 9.10941 149.324 9.119 149.057 9.119C148.795 9.119 148.772 9.13016 148.772 9.25941C148.772 9.38748 148.742 9.40338 148.427 9.4405C148.111 9.47762 148.081 9.49352 148.081 9.6216V9.762H146.466H144.852V9.61587C144.852 9.48896 144.826 9.46973 144.658 9.46973C144.551 9.46973 144.344 9.45301 144.197 9.43255C143.964 9.40022 143.929 9.37725 143.929 9.25719C143.929 9.14261 143.899 9.119 143.756 9.119C143.611 9.119 143.583 9.09585 143.583 8.97672C143.583 8.86501 143.549 8.83052 143.425 8.81597C143.3 8.80147 143.262 8.76301 143.248 8.63674C143.233 8.51048 143.199 8.47599 143.089 8.47599C142.979 8.47599 142.949 8.44548 142.949 8.33371C142.949 8.222 142.915 8.18751 142.79 8.17296C142.666 8.15846 142.628 8.12 142.613 7.99374C142.599 7.86747 142.565 7.83299 142.455 7.83299C142.337 7.83299 142.315 7.8044 142.315 7.65762C142.315 7.51177 142.291 7.48225 142.177 7.48225C142.054 7.48225 142.036 7.44934 142 7.16075C141.964 6.87035 141.947 6.83925 141.82 6.83925C141.681 6.83925 141.68 6.83808 141.68 6.19624V5.55324H141.536H141.392V4.881V4.20877H141.536H141.68V3.56576C141.68 2.92392 141.681 2.92276 141.82 2.92276C141.947 2.92276 141.964 2.89166 142 2.60125C142.036 2.31266 142.054 2.27975 142.177 2.27975C142.291 2.27975 142.315 2.25023 142.315 2.10438C142.315 1.95813 142.338 1.92902 142.453 1.92902C142.576 1.92902 142.597 1.89529 142.631 1.64013C142.666 1.3827 142.687 1.34932 142.824 1.33324C142.942 1.31945 142.982 1.279 142.995 1.15952C143.011 1.02074 143.044 0.999466 143.298 0.964042C143.55 0.928969 143.583 0.907866 143.583 0.783649C143.583 0.66633 143.612 0.643006 143.756 0.643006C143.9 0.643006 143.929 0.619624 143.929 0.502597C143.929 0.374522 143.959 0.358622 144.275 0.321503C144.591 0.284384 144.621 0.268484 144.621 0.140409V0H146.351H148.081V0.140409ZM145.832 2.42589C145.832 2.55279 145.806 2.57203 145.638 2.57203C145.531 2.57203 145.324 2.58874 145.177 2.6092C144.944 2.64153 144.909 2.6645 144.909 2.78457C144.909 2.89914 144.88 2.92276 144.736 2.92276C144.583 2.92276 144.563 2.94222 144.563 3.09812C144.563 3.24484 144.54 3.27349 144.423 3.27349C144.297 3.27349 144.279 3.30458 144.244 3.59499C144.208 3.88358 144.19 3.91649 144.067 3.91649H143.929V4.881V5.84551H144.067C144.19 5.84551 144.208 5.87842 144.244 6.16701C144.279 6.45742 144.297 6.48852 144.423 6.48852C144.54 6.48852 144.563 6.51716 144.563 6.66388C144.563 6.81978 144.583 6.83925 144.736 6.83925C144.88 6.83925 144.909 6.86286 144.909 6.97744C144.909 7.0975 144.944 7.12048 145.177 7.1528C145.324 7.17326 145.531 7.18998 145.638 7.18998C145.806 7.18998 145.832 7.20921 145.832 7.33612V7.48225H146.466C147.097 7.48225 147.1 7.48155 147.1 7.34185C147.1 7.21377 147.131 7.19787 147.446 7.16075C147.762 7.12363 147.792 7.10773 147.792 6.97966C147.792 6.86263 147.821 6.83925 147.965 6.83925C148.111 6.83925 148.138 6.81651 148.138 6.69311C148.138 6.5762 148.167 6.54697 148.282 6.54697C148.404 6.54697 148.427 6.51967 148.427 6.37161C148.427 6.22623 148.45 6.19624 148.563 6.19624C148.681 6.19624 148.704 6.1607 148.736 5.92501C148.756 5.77589 148.772 5.5523 148.772 5.42814C148.772 5.22641 148.788 5.20251 148.917 5.20251C149.053 5.20251 149.061 5.18497 149.061 4.881C149.061 4.57704 149.053 4.5595 148.917 4.5595C148.788 4.5595 148.772 4.53559 148.772 4.33386C148.772 4.2097 148.756 3.98611 148.736 3.83699C148.704 3.6013 148.681 3.56576 148.563 3.56576C148.456 3.56576 148.427 3.53431 148.427 3.41962C148.427 3.30271 148.398 3.27349 148.282 3.27349C148.161 3.27349 148.138 3.24619 148.138 3.09812C148.138 2.94222 148.119 2.92276 147.965 2.92276C147.821 2.92276 147.792 2.89926 147.792 2.78334C147.792 2.65825 147.76 2.63983 147.475 2.60377C147.189 2.56752 147.158 2.54987 147.158 2.42168V2.27975H146.495H145.832V2.42589ZM152.29 3.06468C152.29 3.19288 152.32 3.21053 152.607 3.24677C152.909 3.28506 152.924 3.295 152.924 3.45557C152.924 3.59476 152.948 3.62422 153.063 3.62422C153.185 3.62422 153.206 3.65789 153.241 3.91649C153.276 4.1751 153.297 4.20877 153.42 4.20877C153.535 4.20877 153.558 4.23788 153.558 4.38413C153.558 4.55775 153.561 4.5595 153.875 4.5595C154.173 4.5595 154.192 4.56827 154.192 4.70178C154.192 4.81349 154.227 4.84797 154.351 4.86253C154.476 4.87703 154.514 4.91549 154.528 5.04175C154.545 5.19514 154.56 5.20251 154.859 5.20251C155.153 5.20251 155.173 5.21157 155.173 5.34443C155.173 5.47263 155.203 5.49028 155.49 5.52652C155.775 5.56259 155.807 5.581 155.807 5.7061C155.807 5.82201 155.836 5.84551 155.98 5.84551C156.134 5.84551 156.153 5.86498 156.153 6.02088C156.153 6.19449 156.156 6.19624 156.47 6.19624C156.77 6.19624 156.787 6.20419 156.787 6.34238C156.787 6.45929 156.816 6.48852 156.931 6.48852C157.053 6.48852 157.075 6.51582 157.075 6.66388C157.075 6.81978 157.095 6.83925 157.248 6.83925C157.393 6.83925 157.421 6.8624 157.421 6.98153C157.421 7.09324 157.455 7.12772 157.58 7.14228C157.703 7.1566 157.743 7.19559 157.756 7.31648C157.772 7.45496 157.805 7.47658 158.056 7.51148C158.286 7.54357 158.341 7.57391 158.355 7.67726C158.367 7.76529 158.42 7.80925 158.528 7.82194C158.648 7.83597 158.687 7.87577 158.701 7.9973C158.713 8.10732 158.757 8.15993 158.845 8.17267C158.924 8.18407 158.978 8.23913 158.989 8.31881C159.002 8.40772 159.054 8.4522 159.159 8.46465C159.298 8.48084 159.315 8.51223 159.351 8.80077C159.386 9.08778 159.404 9.119 159.53 9.119C159.64 9.119 159.67 9.14963 159.67 9.26128C159.67 9.37299 159.704 9.40747 159.829 9.42203C159.953 9.43653 159.991 9.47499 160.006 9.60125C160.02 9.72752 160.054 9.762 160.164 9.762C160.282 9.762 160.304 9.79059 160.304 9.93737C160.304 10.0836 160.327 10.1127 160.443 10.1127C160.566 10.1127 160.586 10.1464 160.622 10.405C160.657 10.6636 160.677 10.6973 160.8 10.6973C160.915 10.6973 160.939 10.7266 160.939 10.8688C160.939 11.0124 160.964 11.0433 161.097 11.0588C161.222 11.0733 161.26 11.1117 161.274 11.238C161.288 11.3643 161.322 11.3987 161.433 11.3987C161.564 11.3987 161.573 11.4186 161.573 11.7203C161.573 12.0385 161.575 12.0418 161.746 12.0418C161.917 12.0418 161.919 12.0454 161.919 12.3594C161.919 12.6624 161.926 12.6779 162.077 12.6955C162.202 12.71 162.24 12.7485 162.254 12.8747C162.269 13.001 162.303 13.0355 162.413 13.0355C162.545 13.0355 162.553 13.0554 162.553 13.357C162.553 13.6584 162.562 13.6785 162.693 13.6785C162.82 13.6785 162.837 13.7096 162.873 14C162.908 14.2886 162.927 14.3215 163.05 14.3215C163.178 14.3215 163.187 14.3434 163.187 14.6391C163.187 14.9422 163.195 14.9576 163.346 14.9753C163.496 14.9927 163.505 15.0117 163.522 15.3299C163.538 15.6428 163.549 15.666 163.68 15.666C163.808 15.666 163.822 15.6899 163.822 15.9144C163.823 16.051 163.839 16.2615 163.859 16.382C163.888 16.5635 163.918 16.6013 164.031 16.6013C164.158 16.6013 164.168 16.6235 164.168 16.9228C164.168 17.2232 164.177 17.2443 164.306 17.2443C164.432 17.2443 164.448 17.2751 164.484 17.5886C164.506 17.778 164.505 18.0805 164.483 18.2609C164.447 18.5559 164.429 18.5887 164.305 18.5887C164.179 18.5887 164.168 18.6122 164.168 18.8771C164.168 19.1483 164.158 19.1666 164.009 19.184C163.885 19.1985 163.847 19.237 163.832 19.3633C163.818 19.4881 163.784 19.524 163.678 19.524C163.571 19.524 163.537 19.5599 163.523 19.6848C163.508 19.811 163.471 19.8495 163.346 19.864C163.224 19.8782 163.187 19.9136 163.187 20.018C163.187 20.1384 163.152 20.158 162.87 20.1937C162.584 20.23 162.553 20.2476 162.553 20.3758C162.553 20.5089 162.533 20.5177 162.236 20.5177C161.94 20.5177 161.919 20.5272 161.919 20.6572C161.919 20.7823 161.886 20.8007 161.602 20.8367C161.315 20.873 161.285 20.8906 161.285 21.0188C161.285 21.1579 161.275 21.1608 160.795 21.1608H160.304V21.3361C160.304 21.5097 160.301 21.5115 159.987 21.5115C159.687 21.5115 159.67 21.5194 159.67 21.6576C159.67 21.7958 159.653 21.8038 159.353 21.8038C159.039 21.8038 159.036 21.8055 159.036 21.9791C159.036 22.1527 159.033 22.1545 158.719 22.1545C158.422 22.1545 158.402 22.1637 158.402 22.2949C158.402 22.423 158.371 22.4389 158.056 22.476C157.74 22.5131 157.71 22.529 157.71 22.6571C157.71 22.7883 157.689 22.7975 157.393 22.7975C157.095 22.7975 157.075 22.8064 157.075 22.9394C157.075 23.0676 157.045 23.0853 156.758 23.1215C156.474 23.1576 156.441 23.176 156.441 23.3011C156.441 23.4371 156.429 23.4405 155.951 23.4405C155.474 23.4405 155.461 23.4442 155.461 23.5787C155.461 23.6988 155.426 23.7217 155.193 23.7541C155.046 23.7745 154.696 23.7912 154.415 23.7912C153.909 23.7912 153.904 23.7925 153.904 23.9374V24.0835H151.627H149.349V23.9374C149.349 23.7968 149.335 23.7912 148.982 23.7912C148.781 23.7912 148.495 23.7745 148.348 23.7541C148.116 23.7217 148.081 23.6988 148.081 23.5787C148.081 23.4442 148.067 23.4405 147.59 23.4405C147.106 23.4405 147.1 23.4388 147.1 23.2944C147.1 23.1675 147.075 23.1482 146.907 23.1482C146.8 23.1482 146.592 23.1315 146.445 23.111C146.213 23.0787 146.178 23.0557 146.178 22.9357C146.178 22.7988 146.172 22.7975 145.544 22.7975H144.909V22.9729C144.909 23.1288 144.89 23.1482 144.736 23.1482H144.563V23.6159C144.563 24.0757 144.561 24.0835 144.419 24.0835C144.29 24.0835 144.275 24.1074 144.275 24.3091C144.275 24.4333 144.259 24.6569 144.238 24.806C144.206 25.0417 144.184 25.0772 144.065 25.0772C143.933 25.0772 143.929 25.0907 143.929 25.5741C143.929 26.06 143.926 26.071 143.79 26.071C143.668 26.071 143.647 26.1047 143.612 26.3633C143.577 26.6219 143.556 26.6555 143.434 26.6555C143.318 26.6555 143.295 26.6846 143.295 26.8309C143.295 26.9868 143.276 27.0063 143.122 27.0063C142.968 27.0063 142.949 27.0257 142.949 27.1816C142.949 27.3297 142.926 27.357 142.805 27.357C142.689 27.357 142.661 27.3862 142.661 27.5031C142.661 27.6265 142.634 27.6493 142.488 27.6493C142.334 27.6493 142.315 27.6687 142.315 27.8246V28H141.68C141.05 28 141.046 27.9991 141.046 27.8606C141.046 27.7355 141.014 27.7171 140.729 27.681C140.442 27.6448 140.412 27.6271 140.412 27.4989C140.412 27.3661 140.392 27.357 140.098 27.357C139.8 27.357 139.784 27.3496 139.767 27.1962C139.75 27.0463 139.728 27.0343 139.446 27.0178C139.173 27.0019 139.143 26.9869 139.143 26.8646C139.143 26.7423 139.109 26.7252 138.797 26.6894C138.479 26.6529 138.451 26.6382 138.451 26.5065C138.451 26.3718 138.432 26.3633 138.134 26.3633C137.837 26.3633 137.817 26.3545 137.817 26.221C137.817 26.1093 137.783 26.0748 137.659 26.0602H137.289L137.227 25.7861C136.726 25.7266 137.22 24.2749 137.227 23.2944L137 21.5V18L137.278 14.3215H137.957C138.068 14.3215 138.102 14.287 138.116 14.1608C138.13 14.0345 138.168 13.996 138.293 13.9815C138.417 13.967 138.451 13.9325 138.451 13.8208C138.451 13.6875 138.471 13.6785 138.765 13.6785C139.064 13.6785 139.079 13.6711 139.096 13.5177C139.113 13.3656 139.132 13.3561 139.446 13.3395C139.755 13.3231 139.778 13.312 139.778 13.1787C139.778 13.0493 139.801 13.0354 140.023 13.0348C140.458 13.0337 140.7 12.9715 140.7 12.8604C140.7 12.7149 141.012 12.6846 142.51 12.6854C144.014 12.6862 144.204 12.7079 144.229 12.8819C144.245 12.9956 144.287 13.0077 144.722 13.0232C145.178 13.0395 145.198 13.046 145.198 13.1772C145.198 13.2995 145.232 13.3186 145.515 13.3545C145.801 13.3907 145.832 13.4084 145.832 13.5366C145.832 13.6763 145.84 13.6785 146.351 13.6785C146.866 13.6785 146.87 13.6796 146.87 13.8246C146.87 13.9318 146.9 13.9708 146.985 13.9708C147.07 13.9708 147.1 13.9318 147.1 13.8246V13.6785H147.908H148.715V13.5403C148.715 13.4202 148.75 13.3973 148.982 13.3649C149.329 13.3167 151.329 13.3167 151.676 13.3649C151.909 13.3973 151.944 13.4202 151.944 13.5403C151.944 13.6748 151.957 13.6785 152.434 13.6785C152.914 13.6785 152.924 13.6813 152.924 13.8204C152.924 13.9486 152.955 13.9663 153.241 14.0025C153.526 14.0386 153.558 14.057 153.558 14.1821C153.558 14.298 153.587 14.3215 153.731 14.3215C153.876 14.3215 153.904 14.3447 153.904 14.4638C153.904 14.5755 153.938 14.61 154.063 14.6245C154.186 14.6389 154.225 14.6778 154.239 14.7987C154.255 14.9371 154.288 14.9588 154.537 14.9936L154.817 15.0326L154.856 15.32C154.891 15.5738 154.912 15.6075 155.034 15.6075C155.15 15.6075 155.173 15.6366 155.173 15.7829C155.173 15.9388 155.192 15.9582 155.346 15.9582C155.492 15.9582 155.519 15.981 155.519 16.1044C155.519 16.2213 155.547 16.2505 155.663 16.2505C155.785 16.2505 155.807 16.2778 155.807 16.4259C155.807 16.5726 155.83 16.6013 155.947 16.6013C156.073 16.6013 156.091 16.6324 156.127 16.9228C156.162 17.2113 156.18 17.2443 156.304 17.2443C156.411 17.2443 156.441 17.2129 156.441 17.102C156.441 16.9903 156.475 16.9558 156.6 16.9412C156.724 16.9267 156.762 16.8883 156.777 16.762C156.793 16.6176 156.777 16.6013 156.618 16.6013C156.46 16.6013 156.441 16.5826 156.441 16.4259C156.441 16.2796 156.418 16.2505 156.302 16.2505C156.18 16.2505 156.159 16.2169 156.124 15.9582C156.089 15.6996 156.068 15.666 155.946 15.666C155.83 15.666 155.807 15.6369 155.807 15.4906C155.807 15.3438 155.784 15.3152 155.667 15.3152C155.556 15.3152 155.522 15.2808 155.508 15.1545C155.494 15.0282 155.456 14.9898 155.331 14.9753C155.173 14.9568 155.173 14.9554 155.173 14.493C155.173 14.0444 155.168 14.0292 155.036 14.0292C154.918 14.0292 154.895 13.9937 154.863 13.758C154.843 13.6089 154.827 13.2275 154.827 12.9104C154.827 12.3361 154.826 12.334 154.684 12.334H154.541L154.525 11.3841C154.51 10.4656 154.506 10.4337 154.387 10.4165C154.241 10.3954 154.194 10.1836 154.193 9.5428C154.192 9.13221 154.188 9.119 154.051 9.119C153.92 9.119 153.909 9.09585 153.893 8.78288C153.876 8.46471 153.867 8.44577 153.717 8.42829C153.566 8.41064 153.558 8.39521 153.558 8.09218C153.558 7.79563 153.549 7.77453 153.42 7.77453C153.297 7.77453 153.276 7.74086 153.241 7.48225C153.206 7.22365 153.185 7.18998 153.063 7.18998C152.947 7.18998 152.924 7.16087 152.924 7.01461V6.83925H152.578C152.251 6.83925 152.232 6.83153 152.232 6.69861C152.232 6.57415 152.199 6.55329 151.944 6.51775C151.689 6.4822 151.655 6.46134 151.655 6.33689C151.655 6.22582 151.686 6.19624 151.8 6.19624H151.944V4.881V3.56576H151.8C151.663 3.56576 151.655 3.54823 151.655 3.24426V2.92276H151.973C152.27 2.92276 152.29 2.93164 152.29 3.06468ZM160.65 15.3152C160.65 15.6504 160.657 15.666 160.795 15.666H160.939V16.7766V17.8873H160.795C160.673 17.8873 160.65 17.9146 160.65 18.0626C160.65 18.2185 160.631 18.238 160.477 18.238C160.324 18.238 160.304 18.2575 160.304 18.4134C160.304 18.5614 160.282 18.5887 160.16 18.5887C160.045 18.5887 160.016 18.618 160.016 18.7349C160.016 18.8629 159.991 18.881 159.814 18.881C159.64 18.881 159.613 18.8999 159.613 19.0216C159.613 19.1461 159.579 19.167 159.324 19.2025L159.036 19.2427V19.5587C159.036 19.9064 159.037 19.9071 159.454 19.8372C159.633 19.8072 159.67 19.7771 159.67 19.6625C159.67 19.5476 159.7 19.524 159.843 19.524C159.987 19.524 160.016 19.5007 160.016 19.3834C160.016 19.2589 160.049 19.238 160.304 19.2025C160.56 19.167 160.593 19.1461 160.593 19.0216C160.593 18.9043 160.621 18.881 160.766 18.881C160.919 18.881 160.939 18.8615 160.939 18.7056C160.939 18.5589 160.962 18.5303 161.079 18.5303C161.205 18.5303 161.223 18.4992 161.258 18.2088C161.294 17.9202 161.312 17.8873 161.435 17.8873H161.573V16.7766V15.666H161.432C161.316 15.666 161.289 15.6334 161.274 15.476C161.26 15.3304 161.226 15.2816 161.126 15.2673C161.048 15.256 160.996 15.208 160.996 15.1455C160.996 15.0077 160.946 14.9645 160.785 14.9645C160.659 14.9645 160.65 14.9868 160.65 15.3152Z" fill="#A69A60"/>
<path d="M26.558 7.4H31.802L35.868 23.322H35.944V7.4H39.668V34H35.374L30.358 14.582H30.282V34H26.558V7.4ZM48.8168 34.38C46.7648 34.38 45.1941 33.7973 44.1048 32.632C43.0155 31.4667 42.4708 29.82 42.4708 27.692V13.708C42.4708 11.58 43.0155 9.93333 44.1048 8.768C45.1941 7.60267 46.7648 7.02 48.8168 7.02C50.8688 7.02 52.4395 7.60267 53.5288 8.768C54.6181 9.93333 55.1628 11.58 55.1628 13.708V27.692C55.1628 29.82 54.6181 31.4667 53.5288 32.632C52.4395 33.7973 50.8688 34.38 48.8168 34.38ZM48.8168 30.58C50.2608 30.58 50.9828 29.706 50.9828 27.958V13.442C50.9828 11.694 50.2608 10.82 48.8168 10.82C47.3728 10.82 46.6508 11.694 46.6508 13.442V27.958C46.6508 29.706 47.3728 30.58 48.8168 30.58ZM57.9896 7.4H64.1456C66.223 7.4 67.781 7.95733 68.8196 9.072C69.8583 10.1867 70.3776 11.8207 70.3776 13.974V16.596C70.3776 18.7493 69.8583 20.3833 68.8196 21.498C67.781 22.6127 66.223 23.17 64.1456 23.17H62.1696V34H57.9896V7.4ZM64.1456 19.37C64.8296 19.37 65.3363 19.18 65.6656 18.8C66.0203 18.42 66.1976 17.774 66.1976 16.862V13.708C66.1976 12.796 66.0203 12.15 65.6656 11.77C65.3363 11.39 64.8296 11.2 64.1456 11.2H62.1696V19.37H64.1456ZM74.5419 7.4H80.2039L84.5359 34H80.3559L79.5959 28.718V28.794H74.8459L74.0859 34H70.2099L74.5419 7.4ZM79.1019 25.184L77.2399 12.036H77.1639L75.3399 25.184H79.1019ZM86.5639 7.4H90.7439V34H86.5639V7.4ZM93.8744 7.4H99.1184L103.184 23.322H103.26V7.4H106.984V34H102.69L97.6744 14.582H97.5984V34H93.8744V7.4ZM110.091 7.4H121.149V11.2H114.271V18.61H119.667V22.41H114.271V34H110.091V7.4ZM123.154 7.4H127.334V34H123.154V7.4ZM133.732 11.2H129.362V7.4H142.282V11.2H137.912V34H133.732V11.2Z" fill="black"/>
</svg>
